<svg xmlns="http://www.w3.org/2000/svg" viewBox="0 0 1200 1050" font-family="Arial, Helvetica, sans-serif">
  <defs>
    <marker id="a" viewBox="0 0 10 6" refX="10" refY="3" markerWidth="7" markerHeight="4.5" orient="auto-start-auto">
      <path d="M 0 0 L 10 3 L 0 6 z" fill="#333"/>
    </marker>
    <marker id="ab" viewBox="0 0 10 6" refX="10" refY="3" markerWidth="7" markerHeight="4.5" orient="auto-start-auto">
      <path d="M 0 0 L 10 3 L 0 6 z" fill="#2E75B6"/>
    </marker>
    <marker id="ag" viewBox="0 0 10 6" refX="10" refY="3" markerWidth="7" markerHeight="4.5" orient="auto-start-auto">
      <path d="M 0 0 L 10 3 L 0 6 z" fill="#2E8B57"/>
    </marker>
  </defs>

  <!-- ==================== SHEET B ==================== -->
  <rect x="10" y="10" width="1180" height="280" rx="10" fill="#F8F9FA" stroke="#1F3864" stroke-width="2"/>
  <rect x="10" y="10" width="1180" height="30" rx="10" fill="#1F3864"/>
  <text x="600" y="30" text-anchor="middle" font-size="14" font-weight="bold" fill="white">Sheet B: IF Input + Protection + Bias — Signal Flow</text>
  <text x="600" y="53" text-anchor="middle" font-size="10" fill="#C00000">Status: 0 components placed (empty sheet, 160 bytes)</text>
  
  <!-- External: Mixer output -->
  <rect x="30" y="90" width="90" height="50" rx="5" fill="#E0E0E0" stroke="#999" stroke-width="1" stroke-dasharray="4,2"/>
  <text x="75" y="112" text-anchor="middle" font-size="10" fill="#666">Mixer</text>
  <text x="75" y="126" text-anchor="middle" font-size="8" fill="#666">IF output</text>
  <text x="75" y="138" text-anchor="middle" font-size="7" fill="#999">1–90 mVpp</text>
  
  <!-- J_IF -->
  <rect x="150" y="85" width="80" height="60" rx="5" fill="#FFF3CD" stroke="#B8860B" stroke-width="1.5"/>
  <text x="190" y="108" text-anchor="middle" font-size="11" font-weight="bold">J_IF</text>
  <text x="190" y="122" text-anchor="middle" font-size="9" fill="#666">SMA 50Ω</text>
  <text x="190" y="136" text-anchor="middle" font-size="8" fill="#999">edge-mount</text>
  <line x1="120" y1="115" x2="148" y2="115" stroke="#2E75B6" stroke-width="2" marker-end="url(#ab)"/>
  
  <!-- R_IN -->
  <rect x="260" y="90" width="80" height="50" rx="5" fill="#E8E8E8" stroke="#666" stroke-width="1.5"/>
  <text x="300" y="110" text-anchor="middle" font-size="10" font-weight="bold">R_IN</text>
  <text x="300" y="126" text-anchor="middle" font-size="9" fill="#666">200Ω 1%</text>
  <line x1="230" y1="115" x2="258" y2="115" stroke="#2E75B6" stroke-width="1.5" marker-end="url(#ab)"/>
  
  <!-- TP_IF_RAW -->
  <rect x="295" y="150" width="50" height="22" rx="3" fill="#E0F0FF" stroke="#2E75B6" stroke-width="1"/>
  <text x="320" y="165" text-anchor="middle" font-size="8" fill="#2E75B6">TP_IF_RAW</text>
  <line x1="300" y1="140" x2="300" y2="148" stroke="#2E75B6" stroke-width="0.8"/>
  
  <!-- D_ESD -->
  <rect x="370" y="90" width="80" height="50" rx="5" fill="#E8E8E8" stroke="#666" stroke-width="1.5"/>
  <text x="410" y="110" text-anchor="middle" font-size="10" font-weight="bold">D_ESD</text>
  <text x="410" y="126" text-anchor="middle" font-size="9" fill="#666">TPD1E10B06</text>
  <line x1="340" y1="115" x2="368" y2="115" stroke="#2E75B6" stroke-width="1.5" marker-end="url(#ab)"/>
  <!-- Diode to GND -->
  <line x1="410" y1="140" x2="410" y2="155" stroke="#888" stroke-width="1"/>
  <text x="410" y="168" text-anchor="middle" font-size="8" fill="#888">GND</text>
  
  <!-- C_AC -->
  <rect x="480" y="90" width="80" height="50" rx="5" fill="#E8E8E8" stroke="#666" stroke-width="1.5"/>
  <text x="520" y="110" text-anchor="middle" font-size="10" font-weight="bold">C_AC</text>
  <text x="520" y="126" text-anchor="middle" font-size="9" fill="#666">100nF C0G</text>
  <line x1="450" y1="115" x2="478" y2="115" stroke="#2E75B6" stroke-width="1.5" marker-end="url(#ab)"/>
  
  <!-- R_BIAS -->
  <rect x="590" y="90" width="80" height="50" rx="5" fill="#E8E8E8" stroke="#666" stroke-width="1.5"/>
  <text x="630" y="110" text-anchor="middle" font-size="10" font-weight="bold">R_BIAS</text>
  <text x="630" y="126" text-anchor="middle" font-size="9" fill="#666">47kΩ 1%</text>
  <line x1="560" y1="115" x2="588" y2="115" stroke="#2E75B6" stroke-width="1.5" marker-end="url(#ab)"/>
  
  <!-- VCM connection to R_BIAS -->
  <rect x="605" y="155" width="50" height="22" rx="3" fill="#DCEEFB" stroke="#2E75B6" stroke-width="1"/>
  <text x="630" y="170" text-anchor="middle" font-size="9" font-weight="bold" fill="#2E75B6">VCM</text>
  <line x1="630" y1="140" x2="630" y2="153" stroke="#2E75B6" stroke-width="1" stroke-dasharray="3,2"/>
  <text x="665" y="170" font-size="7" fill="#888">from Sheet A</text>
  
  <!-- TP_PGA_IN -->
  <rect x="688" y="150" width="55" height="22" rx="3" fill="#E0F0FF" stroke="#2E75B6" stroke-width="1"/>
  <text x="715" y="165" text-anchor="middle" font-size="8" fill="#2E75B6">TP_PGA_IN</text>
  
  <!-- Output: IF_IN -->
  <rect x="700" y="92" width="75" height="46" rx="5" fill="#DCEEFB" stroke="#2E75B6" stroke-width="2"/>
  <text x="737" y="112" text-anchor="middle" font-size="12" font-weight="bold" fill="#2E75B6">IF_IN</text>
  <text x="737" y="128" text-anchor="middle" font-size="8" fill="#2E75B6">→ Sheet C</text>
  <line x1="670" y1="115" x2="698" y2="115" stroke="#2E75B6" stroke-width="1.5" marker-end="url(#ab)"/>
  <line x1="715" y1="140" x2="715" y2="148" stroke="#2E75B6" stroke-width="0.8"/>
  
  <!-- Specs box -->
  <rect x="820" y="80" width="350" height="100" rx="5" fill="#FFF" stroke="#CCC" stroke-width="1"/>
  <text x="995" y="100" text-anchor="middle" font-size="10" font-weight="bold" fill="#1F3864">Sheet B Key Specifications</text>
  <text x="835" y="118" font-size="9" fill="#333">HP corner: 1/(2π × 47k × 100nF) = 33.9 Hz (3× below 100 Hz IF floor)</text>
  <text x="835" y="133" font-size="9" fill="#333">R_IN current limit: 5V / 200Ω = 25 mA (below PGA abs max)</text>
  <text x="835" y="148" font-size="9" fill="#333">R_BIAS noise: 27.8 nV/√Hz → 2.78 µVrms (IF band)</text>
  <text x="835" y="163" font-size="9" fill="#333">ESD protection: ±15 kV HBM, 0.5 pF added capacitance</text>
  <text x="835" y="178" font-size="9" fill="#333">Signal loss through R_IN: &lt; 0.002% (200Ω vs 10MΩ PGA input Z)</text>

  <!-- ==================== SHEET C ==================== -->
  <rect x="10" y="310" width="1180" height="300" rx="10" fill="#F8F9FA" stroke="#1F3864" stroke-width="2"/>
  <rect x="10" y="310" width="1180" height="30" rx="10" fill="#1F3864"/>
  <text x="600" y="330" text-anchor="middle" font-size="14" font-weight="bold" fill="white">Sheet C: PGA + Anti-Alias Filter — Signal Flow</text>
  <text x="600" y="353" text-anchor="middle" font-size="10" fill="#C00000">Status: 0 components placed (empty sheet, 160 bytes)</text>

  <!-- Input -->
  <rect x="30" y="380" width="60" height="38" rx="4" fill="#DCEEFB" stroke="#2E75B6" stroke-width="1.5"/>
  <text x="60" y="403" text-anchor="middle" font-size="10" font-weight="bold" fill="#2E75B6">IF_IN</text>
  <text x="60" y="425" font-size="7" fill="#888">from Sheet B</text>
  
  <!-- Optional preamp -->
  <rect x="115" y="375" width="95" height="48" rx="5" fill="#E8E8E8" stroke="#666" stroke-width="1" stroke-dasharray="4,2"/>
  <text x="162" y="395" text-anchor="middle" font-size="9" font-weight="bold" fill="#666">[U_PRE]</text>
  <text x="162" y="408" text-anchor="middle" font-size="8" fill="#888">LT6230 G=10×</text>
  <text x="162" y="420" text-anchor="middle" font-size="7" fill="#999">optional</text>
  <line x1="90" y1="399" x2="113" y2="399" stroke="#2E75B6" stroke-width="1.5" marker-end="url(#ab)"/>
  
  <!-- PGA113 -->
  <rect x="240" y="372" width="115" height="58" rx="5" fill="#D4EDDA" stroke="#2E8B57" stroke-width="2"/>
  <text x="297" y="394" text-anchor="middle" font-size="11" font-weight="bold">U_PGA</text>
  <text x="297" y="408" text-anchor="middle" font-size="9" fill="#666">PGA113</text>
  <text x="297" y="422" text-anchor="middle" font-size="8" fill="#2E8B57">1,2,5,10,20,50,100,200×</text>
  <line x1="210" y1="399" x2="238" y2="399" stroke="#2E75B6" stroke-width="1.5" marker-end="url(#ab)"/>
  
  <!-- SPI to PGA -->
  <line x1="297" y1="432" x2="297" y2="455" stroke="#2E8B57" stroke-width="1" stroke-dasharray="3,2"/>
  <text x="300" y="466" font-size="8" fill="#2E8B57">CS_PGA, SCLK, SDI (from MCU)</text>
  
  <!-- Bypass caps -->
  <rect x="250" y="440" width="35" height="20" rx="2" fill="#FFEEBA" stroke="#B8860B" stroke-width="0.8"/>
  <text x="267" y="453" text-anchor="middle" font-size="7">C11</text>
  <rect x="290" y="440" width="35" height="20" rx="2" fill="#FFEEBA" stroke="#B8860B" stroke-width="0.8"/>
  <text x="307" y="453" text-anchor="middle" font-size="7">C12</text>
  
  <!-- TP_PGA_OUT -->
  <rect x="370" y="438" width="60" height="20" rx="3" fill="#E0F0FF" stroke="#2E75B6" stroke-width="1"/>
  <text x="400" y="452" text-anchor="middle" font-size="8" fill="#2E75B6">TP_PGA_OUT</text>
  
  <!-- R_FILT_ISO -->
  <rect x="380" y="382" width="55" height="36" rx="4" fill="#E8E8E8" stroke="#666" stroke-width="1"/>
  <text x="407" y="397" text-anchor="middle" font-size="8" font-weight="bold">R_ISO</text>
  <text x="407" y="410" text-anchor="middle" font-size="7" fill="#666">0Ω (DFT)</text>
  <line x1="355" y1="399" x2="378" y2="399" stroke="#2E75B6" stroke-width="1.5" marker-end="url(#ab)"/>
  <line x1="400" y1="420" x2="400" y2="436" stroke="#2E75B6" stroke-width="0.8"/>
  
  <!-- Filter Stage 1 -->
  <rect x="460" y="370" width="135" height="62" rx="5" fill="#E8E8E8" stroke="#666" stroke-width="1.5"/>
  <text x="527" y="390" text-anchor="middle" font-size="10" font-weight="bold">Sallen-Key Stage 1</text>
  <text x="527" y="405" text-anchor="middle" font-size="8" fill="#666">R3=1.61k, R4=5.77k</text>
  <text x="527" y="418" text-anchor="middle" font-size="8" fill="#666">C13=11nF, C14=1.1nF (C0G)</text>
  <text x="527" y="428" text-anchor="middle" font-size="8" fill="#2E8B57">fc=15.0 kHz, Q=1.306</text>
  <line x1="435" y1="399" x2="458" y2="399" stroke="#2E75B6" stroke-width="1.5" marker-end="url(#ab)"/>
  
  <!-- Filter Stage 2 -->
  <rect x="625" y="370" width="135" height="62" rx="5" fill="#E8E8E8" stroke="#666" stroke-width="1.5"/>
  <text x="692" y="390" text-anchor="middle" font-size="10" font-weight="bold">Sallen-Key Stage 2</text>
  <text x="692" y="405" text-anchor="middle" font-size="8" fill="#666">R5=17.4k, R6=536Ω</text>
  <text x="692" y="418" text-anchor="middle" font-size="8" fill="#666">C15=11nF, C16=1.1nF (C0G)</text>
  <text x="692" y="428" text-anchor="middle" font-size="8" fill="#2E8B57">fc=15.0 kHz, Q=0.541</text>
  <line x1="595" y1="399" x2="623" y2="399" stroke="#2E75B6" stroke-width="1.5" marker-end="url(#ab)"/>
  
  <!-- LTC6242 label -->
  <text x="595" y="448" text-anchor="middle" font-size="9" fill="#888">U_FILT: LTC6242 (quad, 4 of 4 sections)</text>
  
  <!-- TP_LPF_OUT -->
  <rect x="775" y="438" width="60" height="20" rx="3" fill="#E0F0FF" stroke="#2E75B6" stroke-width="1"/>
  <text x="805" y="452" text-anchor="middle" font-size="8" fill="#2E75B6">TP_LPF_OUT</text>
  
  <!-- Output -->
  <rect x="785" y="380" width="75" height="46" rx="5" fill="#DCEEFB" stroke="#2E75B6" stroke-width="2"/>
  <text x="822" y="400" text-anchor="middle" font-size="12" font-weight="bold" fill="#2E75B6">LPF_OUT</text>
  <text x="822" y="416" text-anchor="middle" font-size="8" fill="#2E75B6">→ Sheet D</text>
  <line x1="760" y1="399" x2="783" y2="399" stroke="#2E75B6" stroke-width="1.5" marker-end="url(#ab)"/>
  <line x1="805" y1="428" x2="805" y2="436" stroke="#2E75B6" stroke-width="0.8"/>
  
  <!-- Composite response box -->
  <rect x="890" y="365" width="280" height="140" rx="5" fill="#FFF" stroke="#CCC" stroke-width="1"/>
  <text x="1030" y="385" text-anchor="middle" font-size="10" font-weight="bold" fill="#1F3864">Composite 4th-Order Butterworth Response</text>
  <text x="905" y="403" font-size="9" fill="#333">10 kHz (top of IF):  -0.2 dB  ✓ flat</text>
  <text x="905" y="418" font-size="9" fill="#333">15 kHz (-3dB point):  -3.0 dB  ✓ on target</text>
  <text x="905" y="433" font-size="9" fill="#333">25 kHz:                        -17.8 dB</text>
  <text x="905" y="448" font-size="9" fill="#333">50 kHz (Nyquist @100kS/s): -41.8 dB</text>
  <text x="905" y="463" font-size="9" fill="#2E8B57">+ FDA output RC (33Ω/470pF): additional -6 dB</text>
  <text x="905" y="478" font-size="9" font-weight="bold" fill="#2E8B57">Total at Nyquist: ~-48 dB (>14-bit suppression)</text>
  <text x="905" y="498" font-size="9" fill="#888">Rolloff: -80 dB/decade (4th order)</text>

  <!-- ==================== SHEET D ==================== -->
  <rect x="10" y="630" width="1180" height="400" rx="10" fill="#F8F9FA" stroke="#1F3864" stroke-width="2"/>
  <rect x="10" y="630" width="1180" height="30" rx="10" fill="#1F3864"/>
  <text x="600" y="650" text-anchor="middle" font-size="14" font-weight="bold" fill="white">Sheet D: FDA Driver + ADC + SPI Interface — Signal Flow</text>
  <text x="600" y="673" text-anchor="middle" font-size="10" fill="#C00000">Status: 0 components placed (empty sheet, 160 bytes)</text>

  <!-- Input -->
  <rect x="30" y="700" width="70" height="38" rx="4" fill="#DCEEFB" stroke="#2E75B6" stroke-width="1.5"/>
  <text x="65" y="723" text-anchor="middle" font-size="10" font-weight="bold" fill="#2E75B6">LPF_OUT</text>
  <text x="65" y="745" font-size="7" fill="#888">from Sheet C</text>
  
  <!-- R_G (input to FDA) -->
  <rect x="125" y="704" width="55" height="30" rx="4" fill="#E8E8E8" stroke="#666" stroke-width="1"/>
  <text x="152" y="718" text-anchor="middle" font-size="9" font-weight="bold">R_G</text>
  <text x="152" y="730" text-anchor="middle" font-size="7" fill="#666">1k 0.1%</text>
  <line x1="100" y1="719" x2="123" y2="719" stroke="#2E75B6" stroke-width="1.5" marker-end="url(#ab)"/>
  
  <!-- THS4531A -->
  <rect x="205" y="690" width="130" height="65" rx="5" fill="#D4EDDA" stroke="#2E8B57" stroke-width="2"/>
  <text x="270" y="712" text-anchor="middle" font-size="11" font-weight="bold">U_FDA</text>
  <text x="270" y="726" text-anchor="middle" font-size="9" fill="#666">THS4531A</text>
  <text x="270" y="740" text-anchor="middle" font-size="8" fill="#2E8B57">SE→Diff, G=1</text>
  <line x1="180" y1="719" x2="203" y2="719" stroke="#2E75B6" stroke-width="1.5" marker-end="url(#ab)"/>
  
  <!-- FDA feedback resistors -->
  <text x="220" y="770" font-size="8" fill="#666">R_F1, R_F2 = 1k 0.1%</text>
  <text x="220" y="782" font-size="8" fill="#666">R_GND = 1k 0.1%</text>
  
  <!-- VOCM -->
  <rect x="235" y="790" width="45" height="22" rx="3" fill="#DCEEFB" stroke="#2E75B6" stroke-width="1"/>
  <text x="257" y="805" text-anchor="middle" font-size="8" font-weight="bold" fill="#2E75B6">VCM</text>
  <line x1="270" y1="757" x2="270" y2="775" stroke="#2E75B6" stroke-width="1" stroke-dasharray="3,2"/>
  <text x="290" y="805" font-size="7" fill="#888">1.65V from Sheet A</text>
  
  <!-- TP_FDA_OUT -->
  <rect x="350" y="760" width="65" height="20" rx="3" fill="#E0F0FF" stroke="#2E75B6" stroke-width="1"/>
  <text x="382" y="774" text-anchor="middle" font-size="8" fill="#2E75B6">TP_FDA_OUT</text>
  
  <!-- R_OUTP + R_OUTM -->
  <rect x="365" y="698" width="75" height="50" rx="5" fill="#E8E8E8" stroke="#666" stroke-width="1.5"/>
  <text x="402" y="715" text-anchor="middle" font-size="9" font-weight="bold">R_OUT</text>
  <text x="402" y="730" text-anchor="middle" font-size="8" fill="#666">33Ω × 2</text>
  <text x="402" y="742" text-anchor="middle" font-size="7" fill="#888">P and M</text>
  <line x1="335" y1="719" x2="363" y2="719" stroke="#2E75B6" stroke-width="1.5" marker-end="url(#ab)"/>
  <line x1="382" y1="750" x2="382" y2="758" stroke="#2E75B6" stroke-width="0.8"/>
  
  <!-- C_DIFF -->
  <rect x="460" y="698" width="70" height="50" rx="5" fill="#E8E8E8" stroke="#666" stroke-width="1.5"/>
  <text x="495" y="715" text-anchor="middle" font-size="9" font-weight="bold">C_DIFF</text>
  <text x="495" y="730" text-anchor="middle" font-size="8" fill="#666">470pF C0G</text>
  <text x="495" y="742" text-anchor="middle" font-size="7" fill="#888">across AINP/M</text>
  <line x1="440" y1="719" x2="458" y2="719" stroke="#2E75B6" stroke-width="1.5" marker-end="url(#ab)"/>
  
  <!-- Settling calc -->
  <text x="460" y="768" font-size="8" fill="#2E8B57">τ = 33Ω × 470pF = 15.5 ns</text>
  <text x="460" y="780" font-size="8" fill="#2E8B57">645τ in 10µs → 18-bit OK ✓</text>
  
  <!-- TP_AINP/M -->
  <rect x="550" y="760" width="60" height="20" rx="3" fill="#E0F0FF" stroke="#2E75B6" stroke-width="1"/>
  <text x="580" y="774" text-anchor="middle" font-size="8" fill="#2E75B6">TP_AIN±</text>
  
  <!-- ADS8881 -->
  <rect x="555" y="688" width="130" height="68" rx="5" fill="#D4EDDA" stroke="#2E8B57" stroke-width="2"/>
  <text x="620" y="710" text-anchor="middle" font-size="11" font-weight="bold">U_ADC</text>
  <text x="620" y="724" text-anchor="middle" font-size="9" fill="#666">ADS8881</text>
  <text x="620" y="738" text-anchor="middle" font-size="8" fill="#2E8B57">18-bit SAR, 100 kS/s</text>
  <text x="620" y="750" text-anchor="middle" font-size="8" fill="#2E8B57">SOT-23-8</text>
  <line x1="530" y1="719" x2="553" y2="719" stroke="#2E75B6" stroke-width="1.5" marker-end="url(#ab)"/>
  <line x1="580" y1="758" x2="580" y2="768" stroke="#2E75B6" stroke-width="0.8"/>
  
  <!-- ADC bypass caps -->
  <rect x="555" y="770" width="40" height="18" rx="2" fill="#FFEEBA" stroke="#B8860B" stroke-width="0.8"/>
  <text x="575" y="783" text-anchor="middle" font-size="7">C_AVDD</text>
  <rect x="600" y="770" width="40" height="18" rx="2" fill="#FFEEBA" stroke="#B8860B" stroke-width="0.8"/>
  <text x="620" y="783" text-anchor="middle" font-size="7">C_VREF</text>
  <rect x="645" y="770" width="40" height="18" rx="2" fill="#FFEEBA" stroke="#B8860B" stroke-width="0.8"/>
  <text x="665" y="783" text-anchor="middle" font-size="7">C_HF</text>
  
  <!-- VREF input -->
  <rect x="615" y="800" width="50" height="22" rx="3" fill="#DCEEFB" stroke="#2E75B6" stroke-width="1"/>
  <text x="640" y="815" text-anchor="middle" font-size="9" font-weight="bold" fill="#2E75B6">VREF</text>
  <text x="675" y="815" font-size="7" fill="#888">2.5V from Sheet A</text>
  <line x1="640" y1="790" x2="640" y2="798" stroke="#2E75B6" stroke-width="1" stroke-dasharray="3,2"/>
  
  <!-- SPI output -->
  <rect x="720" y="695" width="80" height="55" rx="5" fill="#FFF3CD" stroke="#B8860B" stroke-width="1.5"/>
  <text x="760" y="715" text-anchor="middle" font-size="10" font-weight="bold">SPI Bus</text>
  <text x="760" y="730" text-anchor="middle" font-size="8" fill="#666">CONVST</text>
  <text x="760" y="742" text-anchor="middle" font-size="8" fill="#666">SCLK, SDO</text>
  <line x1="685" y1="719" x2="718" y2="719" stroke="#2E8B57" stroke-width="1.5" marker-end="url(#ag)"/>
  
  <!-- MCU Header -->
  <rect x="830" y="690" width="90" height="62" rx="5" fill="#FFF3CD" stroke="#B8860B" stroke-width="2"/>
  <text x="875" y="712" text-anchor="middle" font-size="11" font-weight="bold">J_SPI</text>
  <text x="875" y="728" text-anchor="middle" font-size="9" fill="#666">2×5 header</text>
  <text x="875" y="742" text-anchor="middle" font-size="8" fill="#666">→ MCU</text>
  <line x1="800" y1="719" x2="828" y2="719" stroke="#2E8B57" stroke-width="1.5" marker-end="url(#ag)"/>
  
  <!-- Pull-ups -->
  <text x="830" y="770" font-size="8" fill="#666">10k pull-ups on CS_ADC, CS_PGA, SDO to 3V3D</text>
  <text x="830" y="782" font-size="8" fill="#666">10k pull-down on CONVST to GND</text>
  
  <!-- Full-scale signal budget -->
  <rect x="940" y="688" width="240" height="150" rx="5" fill="#FFF" stroke="#CCC" stroke-width="1"/>
  <text x="1060" y="708" text-anchor="middle" font-size="10" font-weight="bold" fill="#1F3864">Full-Scale Signal Budget</text>
  <text x="955" y="726" font-size="9" fill="#333">VREF = 2.5V → ADC FS = ±2.5V diff (5.0 Vpp)</text>
  <text x="955" y="741" font-size="9" fill="#333">VCM = 1.65V → symmetric swing ±1.5V</text>
  <text x="955" y="756" font-size="9" fill="#333">Usable diff: 3.0 Vpp (60% of FS)</text>
  <text x="955" y="771" font-size="9" fill="#333">18-bit LSB at 3.0 Vpp: 11.4 µV</text>
  <text x="955" y="786" font-size="9" fill="#333">Chain noise: ~50 µVrms</text>
  <text x="955" y="801" font-size="9" font-weight="bold" fill="#2E8B57">Noise-limited ENOB: ~13.5 bits</text>
  <text x="955" y="820" font-size="9" fill="#888">Target PGA output: ~1.0 Vpp SE → 2.0 Vpp diff</text>
  
  <!-- DFT structures -->
  <rect x="940" y="848" width="240" height="60" rx="5" fill="#FFF" stroke="#CCC" stroke-width="1"/>
  <text x="1060" y="868" text-anchor="middle" font-size="10" font-weight="bold" fill="#1F3864">Sheet D DFT Structures</text>
  <text x="955" y="886" font-size="9" fill="#333">J_CONVST_OVRD: manual ADC trigger</text>
  <text x="955" y="900" font-size="9" fill="#333">J_ADC_DIRECT: inject signal directly into ADC</text>
</svg>
